<?xml version="1.0" standalone="no"?>
<!DOCTYPE svg PUBLIC "-//W3C//DTD SVG 20010904//EN"
 "http://www.w3.org/TR/2001/REC-SVG-20010904/DTD/svg10.dtd">
<svg version="1.0" xmlns="http://www.w3.org/2000/svg"
 width="1107.000000pt" height="1107.000000pt" viewBox="0 0 1107.000000 1107.000000"
 preserveAspectRatio="xMidYMid meet">
<metadata>
Created by potrace 1.14, written by Peter Selinger 2001-2017
</metadata>
<g transform="translate(0.000000,1107.000000) scale(0.100000,-0.100000)"
fill="#000000" stroke="none">
<path d="M7140 5713 l0 -1453 1808 0 1809 0 0 1103 1 1102 -350 351 -350 351
-1459 0 -1459 0 0 -1454z"/>
<path d="M1145 6659 c-195 -17 -353 -86 -498 -219 -189 -173 -287 -407 -289
-689 0 -86 9 -197 17 -211 2 -3 6 -24 10 -48 8 -53 59 -181 98 -247 166 -276
440 -427 762 -420 173 3 330 62 425 159 19 19 40 36 46 36 10 0 27 -94 26
-142 -1 -10 4 -21 10 -24 8 -5 185 -8 284 -5 l21 1 -1 473 -1 472 -403 0 -403
0 3 -140 3 -140 175 -2 c221 -2 210 -1 210 -16 0 -25 -38 -92 -80 -140 -77
-87 -192 -135 -326 -135 -136 0 -241 45 -329 140 -91 98 -137 230 -136 393 2
281 183 494 432 509 70 4 175 -17 230 -44 47 -25 146 -118 174 -166 l18 -32
203 0 c118 0 206 3 210 9 12 21 -74 208 -135 291 -143 195 -359 320 -576 334
-44 3 -84 6 -90 8 -5 1 -46 -1 -90 -5z"/>
<path d="M2775 6155 c-100 -28 -136 -44 -205 -91 -182 -125 -278 -312 -282
-544 -2 -117 6 -175 37 -263 54 -157 162 -282 315 -365 82 -45 221 -72 345
-68 55 2 109 6 120 9 143 36 234 83 327 168 62 58 132 161 152 224 6 20 2 20
-182 20 l-189 0 -38 -34 c-64 -56 -119 -76 -210 -76 -160 0 -261 86 -291 247
-3 15 35 16 467 16 258 0 473 3 477 7 9 9 9 208 0 260 -39 224 -230 426 -465
491 -34 9 -107 17 -178 19 -99 2 -134 -2 -200 -20z m291 -290 c68 -20 117 -64
153 -137 53 -106 74 -98 -254 -98 -327 0 -307 -7 -259 95 61 128 208 186 360
140z"/>
<path d="M4465 6163 c-65 -15 -154 -61 -198 -101 -33 -31 -42 -23 -53 46 -4
29 -11 42 -23 43 -20 1 -303 1 -313 0 -5 -1 -8 -293 -8 -651 0 -513 3 -650 13
-651 60 -3 357 0 364 4 4 3 8 166 8 364 -1 197 3 378 8 403 20 95 91 164 185
179 128 20 228 -32 274 -143 14 -36 17 -91 17 -420 1 -209 3 -382 6 -384 6 -6
361 -5 372 1 5 3 8 196 7 439 -1 472 -4 507 -60 618 -35 71 -144 179 -214 213
-111 53 -260 69 -385 40z"/>
<path d="M5435 6152 c-20 -3 -21 -8 -19 -435 1 -238 5 -448 9 -467 4 -19 8
-39 9 -45 18 -82 66 -166 136 -235 109 -109 226 -152 399 -145 53 2 110 8 126
13 70 23 127 54 168 92 l44 40 14 -60 c9 -41 18 -60 29 -61 8 0 84 -1 168 -2
l152 -2 0 653 c0 514 -3 652 -12 653 -53 4 -368 3 -369 -1 -1 -3 -2 -178 -3
-390 -2 -379 -2 -386 -25 -432 -51 -107 -160 -152 -289 -123 -61 14 -111 56
-145 120 -21 39 -22 52 -23 428 0 213 -4 390 -7 394 -7 6 -323 11 -362 5z"/>
</g>
</svg>
