<svg id="Layer_1" data-name="Layer 1" xmlns="http://www.w3.org/2000/svg" viewBox="0 0 265.63 91.67"><defs><style>.cls-1{fill:#fff;}.cls-2{fill:#00aa52;}.cls-3{fill:#434143;}</style></defs><title>genuim_logo</title><polygon class="cls-1" points="240.78 6.02 170.84 6.02 170.84 75.77 257.61 75.77 257.61 22.85 240.78 6.02"/><path class="cls-1" d="M41.44,61.68l-.61-4.3h-.31a13.62,13.62,0,0,1-2.82,2.46,16,16,0,0,1-8.83,2.45A19.73,19.73,0,0,1,14,56Q8,49.78,8,40.21t6-15.82a19.77,19.77,0,0,1,14.84-6.26A19.07,19.07,0,0,1,44.63,25.8a26.36,26.36,0,0,1,3.87,7.67H38.38a12.28,12.28,0,0,0-2.09-2.89,10.05,10.05,0,0,0-7.42-2.94A10.18,10.18,0,0,0,21,31.13a13,13,0,0,0-3.16,9.08A13,13,0,0,0,21,49.32a10.22,10.22,0,0,0,7.88,3.46q5.4,0,8.28-3.49A9.23,9.23,0,0,0,39,45.73h-9.5V39H48.8V61.68Z"/><path class="cls-1" d="M76.4,52.17h9.2a15.6,15.6,0,0,1-15,10.12A15.64,15.64,0,0,1,54.32,46,15.63,15.63,0,0,1,70.57,29.79,15.59,15.59,0,0,1,82,34.26a15,15,0,0,1,4.54,11.16,20.16,20.16,0,0,1-.18,2.33l-.13.74H63.52a6.82,6.82,0,0,0,7,6.44A7.62,7.62,0,0,0,75,53.58,5.83,5.83,0,0,0,76.4,52.17ZM63.52,43H77.63q-1.35-6.13-7.06-6.13T63.52,43Z"/><path class="cls-1" d="M92.34,61.68V30.4h8l.61,2.76h.31a8.45,8.45,0,0,1,2.08-1.66,11.72,11.72,0,0,1,6.5-1.71,12.14,12.14,0,0,1,9.05,3.58,12.72,12.72,0,0,1,3.53,9.3v19h-9.2V44.5a5.83,5.83,0,1,0-11.66,0V61.68Z"/><path class="cls-1" d="M129.45,49.41v-19h9.2V47.57a5.83,5.83,0,1,0,11.65,0V30.4h9.2V61.68h-8l-.62-2.76h-.3a9.34,9.34,0,0,1-2.09,1.71,11.57,11.57,0,0,1-6.5,1.66A12.15,12.15,0,0,1,133,58.7,12.69,12.69,0,0,1,129.45,49.41Z"/><path class="cls-2" d="M183.42,25.86v-8h9.19v8Zm0,35.82V30.4h9.19V61.68Z"/><path class="cls-2" d="M200,61.68V30.4h8l.61,2.76h.31a11.93,11.93,0,0,1,2-1.66,9,9,0,0,1,5.39-1.71,10.73,10.73,0,0,1,6.57,2.14,12,12,0,0,1,2,2.15h.31a10.71,10.71,0,0,1,2.14-2.15,11.8,11.8,0,0,1,15.27,1.47A12.93,12.93,0,0,1,246,42.67v19h-9.2V43.89A5.54,5.54,0,0,0,235.54,40a4.84,4.84,0,0,0-6.71,0,5.45,5.45,0,0,0-1.26,3.86V61.68h-9.2V43.89A5.54,5.54,0,0,0,217.14,40a4.88,4.88,0,0,0-6.74,0,5.54,5.54,0,0,0-1.23,3.86V61.68Z"/><polygon class="cls-3" points="240.78 6.02 240.78 22.85 257.61 22.85 240.78 6.02"/></svg>