<svg id="Layer_1" data-name="Layer 1" xmlns="http://www.w3.org/2000/svg" viewBox="0 0 265.63 91.67"><defs><style>.cls-1{fill:#00aa52;}.cls-2{fill:#434143;}.cls-3{fill:#fff;}</style></defs><title>genuim_logo</title><polygon class="cls-1" points="241.3 6.71 171.36 6.71 171.36 76.46 258.13 76.46 258.13 23.54 241.3 6.71"/><path class="cls-2" d="M42,62.36l-.61-4.29H41a13.3,13.3,0,0,1-2.82,2.45A15.89,15.89,0,0,1,29.39,63a19.77,19.77,0,0,1-14.84-6.26q-6-6.26-6-15.82t6-15.82a19.77,19.77,0,0,1,14.84-6.26,19.07,19.07,0,0,1,15.76,7.67A26.42,26.42,0,0,1,49,34.15H38.9a12.14,12.14,0,0,0-2.09-2.88,10.05,10.05,0,0,0-7.42-2.94,10.18,10.18,0,0,0-7.88,3.49,13.06,13.06,0,0,0-3.16,9.08A13,13,0,0,0,21.51,50a10.22,10.22,0,0,0,7.88,3.46q5.4,0,8.28-3.5a9.19,9.19,0,0,0,1.84-3.55H30V39.67H49.32V62.36Z"/><path class="cls-2" d="M76.92,52.86h9.2A16,16,0,0,1,83,58,15.75,15.75,0,0,1,71.1,63,15.65,15.65,0,0,1,54.84,46.72,15.65,15.65,0,0,1,71.1,30.47,15.55,15.55,0,0,1,82.5,35,15,15,0,0,1,87,46.11a20.32,20.32,0,0,1-.18,2.33l-.13.74H64a7,7,0,0,0,2.18,4.63,6.88,6.88,0,0,0,4.88,1.81,7.61,7.61,0,0,0,4.41-1.35A5.83,5.83,0,0,0,76.92,52.86ZM64,43.66H78.15q-1.35-6.13-7.05-6.14T64,43.66Z"/><path class="cls-2" d="M92.87,62.36V31.09h8l.61,2.75h.31a8.21,8.21,0,0,1,2.08-1.65,11.72,11.72,0,0,1,6.5-1.72,12.15,12.15,0,0,1,9,3.59,12.69,12.69,0,0,1,3.53,9.29v19h-9.2V45.19a5.83,5.83,0,1,0-11.66,0V62.36Z"/><path class="cls-2" d="M130,50.1v-19h9.2V48.26a5.83,5.83,0,1,0,11.65,0V31.09H160V62.36h-8l-.62-2.76h-.3A9.09,9.09,0,0,1,149,61.32a11.65,11.65,0,0,1-6.5,1.66,12.13,12.13,0,0,1-9-3.59A12.65,12.65,0,0,1,130,50.1Z"/><path class="cls-3" d="M183.94,26.55v-8h9.2v8Zm0,35.81V31.09h9.2V62.36Z"/><path class="cls-3" d="M200.49,62.36V31.09h8l.61,2.75h.31a11.43,11.43,0,0,1,2-1.65,9,9,0,0,1,5.4-1.72,10.71,10.71,0,0,1,6.56,2.15,11.93,11.93,0,0,1,2,2.14h.31a10.7,10.7,0,0,1,2.14-2.14,11.78,11.78,0,0,1,15.28,1.47,12.94,12.94,0,0,1,3.43,9.26v19h-9.2V44.58a5.55,5.55,0,0,0-1.23-3.87,4.84,4.84,0,0,0-6.71,0,5.46,5.46,0,0,0-1.26,3.87V62.36h-9.2V44.58a5.6,5.6,0,0,0-1.22-3.87,4.89,4.89,0,0,0-6.75,0,5.55,5.55,0,0,0-1.23,3.87V62.36Z"/><polygon class="cls-2" points="241.3 6.71 241.3 23.54 258.13 23.54 241.3 6.71"/></svg>